<svg width="61" height="60" viewBox="0 0 61 60" fill="none" xmlns="http://www.w3.org/2000/svg">
<path d="M60.4771 43.1668C60.5806 42.9656 60.3097 42.7803 60.1337 42.9294C55.1576 47.1457 48.4679 49.5305 41.289 49.0686C27.1294 48.1576 16.4284 36.5172 17.3876 23.069C18.1797 11.9647 26.6741 3.09992 37.5824 0.860136C37.8132 0.812757 37.8152 0.494935 37.5826 0.456198C36.4825 0.272915 35.3613 0.14308 34.2218 0.0697698C16.8174 -1.05002 1.75249 11.4424 0.573461 27.9724C-0.60557 44.5024 12.5477 58.8104 29.9522 59.9302C43.1516 60.7795 55.0054 53.7995 60.4771 43.1668Z" fill="black"/>
<path d="M44.368 12.9347C44.3378 12.7437 44.5882 12.6333 44.7363 12.7723L49.5518 17.2951C49.6181 17.3574 49.7192 17.3746 49.8028 17.3377L55.9981 14.6061C56.1872 14.5226 56.3869 14.7151 56.2877 14.8851L53.0689 20.3983C53.024 20.4751 53.0397 20.5711 53.1075 20.6348L57.9119 25.1471C58.0607 25.2869 57.9337 25.5163 57.726 25.4826L50.9121 24.378C50.8208 24.3632 50.7308 24.4029 50.6875 24.477L47.4569 30.0105C47.3584 30.1791 47.0802 30.1285 47.0499 29.9364L46.0719 23.7369C46.0581 23.6494 45.9841 23.5792 45.8895 23.5638L39.1006 22.4633C38.8912 22.4294 38.8463 22.1687 39.0355 22.0852L45.2308 19.3536C45.3144 19.3167 45.3616 19.2342 45.3482 19.1486L44.368 12.9347Z" fill="black"/>
</svg>
